<svg width="600" height="600" xmlns="http://www.w3.org/2000/svg">
 <g>
  <title>Layer 1</title>
  <defs>
   <linearGradient id="_lgradient_0" x1="0.02036" y1="0.02893" x2="0.96214" y2="0.97393">
    <stop offset="0%" stop-color="#A1A1F1"/>
    <stop offset="54.25%" stop-color="#E69BDD"/>
   </linearGradient>
  </defs>
  <rect fill="url(#_lgradient_0)" x="0" y="0" width="600" height="600" id="svg_2" rx="100"/>
  <g id="svg_22">
   <path fill="#fff" d="m254.8698,128.44016a1.5551,1.5551 0 0 1 -1.46119,-1.00167l-2.49417,-6.48585a1.00543,1.00543 0 0 0 -0.57534,-0.57534l-6.48772,-2.49605a1.56512,1.56512 0 0 1 0,-2.92239l6.48585,-2.49417a1.00543,1.00543 0 0 0 0.57534,-0.57534l2.49605,-6.48772a1.56512,1.56512 0 0 1 2.92239,0l2.49417,6.48585a1.00543,1.00543 0 0 0 0.57534,0.57534l6.44828,2.48102a1.59579,1.59579 0 0 1 1.04112,1.50877a1.55385,1.55385 0 0 1 -1.00167,1.42864l-6.48585,2.49417a1.00543,1.00543 0 0 0 -0.57534,0.57534l-2.49605,6.48772a1.5551,1.5551 0 0 1 -1.46119,1.00167l-0.00002,0.00001zm4.18512,-15.95418l0,0z" id="svg_21"/>
  </g>
  <g id="svg_6">
   <g id="svg_1">
    <path id="svg_3" fill="#fff" d="m148.0019,87.02163a2.26658,2.00786 0 0 1 -2.12971,-1.29331l-3.63529,-8.37418a1.46543,1.29816 0 0 0 -0.83856,-0.74284l-9.45596,-3.22277a2.28118,2.0208 0 0 1 0,-3.77323l9.45322,-3.22034a1.46543,1.29816 0 0 0 0.83856,-0.74284l3.63803,-8.3766a2.28118,2.0208 0 0 1 4.25942,0l3.63529,8.37418a1.46543,1.29816 0 0 0 0.83856,0.74284l9.39847,3.20337a2.32589,2.0604 0 0 1 1.51744,1.94805a2.26476,2.00625 0 0 1 -1.45996,1.84458l-9.45322,3.22034a1.46543,1.29816 0 0 0 -0.83856,0.74284l-3.63803,8.3766a2.26658,2.00786 0 0 1 -2.12971,1.29331l0.00001,0zm6.09988,-20.59918l0,0z"/>
   </g>
   <g id="svg_14">
    <path fill="#fff" d="m114.50297,154.02159a3.56019,3.56019 0 0 1 -3.3452,-2.2932l-5.71006,-14.84846a2.3018,2.3018 0 0 0 -1.31716,-1.31716l-14.85276,-5.71436a3.58312,3.58312 0 0 1 0,-6.6904l14.84846,-5.71006a2.3018,2.3018 0 0 0 1.31716,-1.31716l5.71436,-14.85276a3.58312,3.58312 0 0 1 6.6904,0l5.71006,14.84846a2.3018,2.3018 0 0 0 1.31716,1.31716l14.76246,5.67996a3.65335,3.65335 0 0 1 2.38349,3.45413a3.55732,3.55732 0 0 1 -2.2932,3.27067l-14.84846,5.71006a2.3018,2.3018 0 0 0 -1.31716,1.31716l-5.71436,14.85276a3.56019,3.56019 0 0 1 -3.3452,2.2932l0.00001,0zm9.58127,-36.52491l0,0z" id="svg_13"/>
   </g>
   <g id="svg_16">
    <path fill="#fff" d="m74.00131,230.02164a1.5551,1.5551 0 0 1 -1.46119,-1.00167l-2.49417,-6.48585a1.00543,1.00543 0 0 0 -0.57534,-0.57534l-6.48772,-2.49605a1.56512,1.56512 0 0 1 0,-2.92239l6.48585,-2.49417a1.00543,1.00543 0 0 0 0.57534,-0.57534l2.49605,-6.48772a1.56512,1.56512 0 0 1 2.92239,0l2.49417,6.48585a1.00543,1.00543 0 0 0 0.57534,0.57534l6.44828,2.48102a1.59579,1.59579 0 0 1 1.04112,1.50877a1.55385,1.55385 0 0 1 -1.00167,1.42864l-6.48585,2.49417a1.00543,1.00543 0 0 0 -0.57534,0.57534l-2.49605,6.48772a1.5551,1.5551 0 0 1 -1.46119,1.00167l-0.00002,0.00001zm4.18512,-15.95418l0,0z" id="svg_15"/>
   </g>
   <g id="svg_32">
    <path fill="#fff" d="m180.4622,124.18385a2.59612,2.59612 0 0 1 -2.43935,-1.67222l-4.16382,-10.82761a1.67849,1.67849 0 0 0 -0.96048,-0.96048l-10.83075,-4.16696a2.61284,2.61284 0 0 1 0,-4.8787l10.82761,-4.16382a1.67849,1.67849 0 0 0 0.96048,-0.96048l4.16696,-10.83075a2.61284,2.61284 0 0 1 4.8787,0l4.16382,10.82761a1.67849,1.67849 0 0 0 0.96048,0.96048l10.7649,4.14188a2.66405,2.66405 0 0 1 1.73806,2.51878a2.59403,2.59403 0 0 1 -1.67222,2.385l-10.82761,4.16382a1.67849,1.67849 0 0 0 -0.96048,0.96048l-4.16696,10.83075a2.59612,2.59612 0 0 1 -2.43935,1.67222l0.00001,0zm6.98674,-26.63425l0,0z" id="svg_31"/>
   </g>
  </g>
  <g id="svg_7">
   <g id="svg_26">
    <path fill="#fff" d="m310.41273,429.02166a1.5551,1.5551 0 0 1 -1.46119,-1.00167l-2.49417,-6.48585a1.00543,1.00543 0 0 0 -0.57534,-0.57534l-6.48772,-2.49605a1.56512,1.56512 0 0 1 0,-2.92239l6.48585,-2.49417a1.00543,1.00543 0 0 0 0.57534,-0.57534l2.49605,-6.48772a1.56512,1.56512 0 0 1 2.92239,0l2.49417,6.48585a1.00543,1.00543 0 0 0 0.57534,0.57534l6.44828,2.48102a1.59579,1.59579 0 0 1 1.04112,1.50877a1.55385,1.55385 0 0 1 -1.00167,1.42864l-6.48585,2.49417a1.00543,1.00543 0 0 0 -0.57534,0.57534l-2.49605,6.48772a1.5551,1.5551 0 0 1 -1.46119,1.00167l-0.00002,0.00001zm4.18512,-15.95418l0,0z" id="svg_25"/>
   </g>
   <g id="svg_30">
    <path fill="#fff" d="m416.46586,204.70215a1.37752,1.37752 0 0 1 -1.29434,-0.88729l-2.20936,-5.74522a0.89062,0.89062 0 0 0 -0.50964,-0.50964l-5.74689,-2.21102a1.3864,1.3864 0 0 1 0,-2.58868l5.74522,-2.20936a0.89062,0.89062 0 0 0 0.50964,-0.50964l2.21102,-5.74689a1.3864,1.3864 0 0 1 2.58868,0l2.20936,5.74522a0.89062,0.89062 0 0 0 0.50964,0.50964l5.71195,2.19771a1.41357,1.41357 0 0 1 0.92223,1.33649a1.37641,1.37641 0 0 1 -0.88729,1.2655l-5.74522,2.20936a0.89062,0.89062 0 0 0 -0.50964,0.50964l-2.21102,5.74689a1.37752,1.37752 0 0 1 -1.29434,0.88729zm3.70722,-14.13236l0,0z" id="svg_29"/>
   </g>
   <g id="svg_9">
    <path fill="#fff" d="m281.91518,224.5249a4.46617,4.46617 0 0 1 -4.19647,-2.87676l-7.16313,-18.627a2.88754,2.88754 0 0 0 -1.65234,-1.65234l-18.6324,-7.16852a4.49493,4.49493 0 0 1 0,-8.39294l18.627,-7.16313a2.88754,2.88754 0 0 0 1.65234,-1.65234l7.16852,-18.6324a4.49493,4.49493 0 0 1 8.39294,0l7.16313,18.627a2.88754,2.88754 0 0 0 1.65234,1.65234l18.51912,7.12537a4.58303,4.58303 0 0 1 2.99003,4.33311a4.46257,4.46257 0 0 1 -2.87676,4.10297l-18.627,7.16313a2.88754,2.88754 0 0 0 -1.65234,1.65234l-7.16852,18.6324a4.46617,4.46617 0 0 1 -4.19647,2.87676l0,0l0.00001,0l0,0.00001zm12.01945,-45.81955l0,0z" id="svg_8"/>
   </g>
   <g id="svg_24">
    <path fill="#ffffff" d="m364.94217,301.04968a6.92401,6.92401 0 0 1 -6.5059,-4.45991l-11.10518,-28.87794a4.47664,4.47664 0 0 0 -2.56167,-2.56167l-28.8863,-11.11355a6.96861,6.96861 0 0 1 0,-13.0118l28.87794,-11.10518a4.47664,4.47664 0 0 0 2.56167,-2.56167l11.11355,-28.8863a6.96861,6.96861 0 0 1 13.0118,0l11.10518,28.87794a4.47664,4.47664 0 0 0 2.56167,2.56167l28.7107,11.04665a7.1052,7.1052 0 0 1 4.63552,6.71774a6.91844,6.91844 0 0 1 -4.45991,6.36095l-28.87794,11.10518a4.47664,4.47664 0 0 0 -2.56167,2.56167l-11.11355,28.8863a6.92401,6.92401 0 0 1 -6.5059,4.45991l0,0.00001l-0.00002,0l0.00001,0zm18.63407,-71.03528l0,0z" id="svg_23"/>
   </g>
   <g id="svg_5">
    <path fill="#fff" d="m253.9202,444.52474a10.48143,10.48143 0 0 1 -9.8485,-6.75132l-16.81079,-43.71482a6.77664,6.77664 0 0 0 -3.87779,-3.87779l-43.72748,-16.82346a10.54894,10.54894 0 0 1 0,-19.69699l43.71482,-16.81079a6.77664,6.77664 0 0 0 3.87779,-3.87779l16.82346,-43.72748a10.54894,10.54894 0 0 1 19.69699,0l16.81079,43.71482a6.77664,6.77664 0 0 0 3.87779,3.87779l43.46165,16.72219a10.7557,10.7557 0 0 1 7.01715,10.16918a10.47299,10.47299 0 0 1 -6.75132,9.62907l-43.71482,16.81079a6.77664,6.77664 0 0 0 -3.87779,3.87779l-16.82346,43.72748a10.48143,10.48143 0 0 1 -9.8485,6.75132l0,0.00001l0.00001,0zm28.20788,-107.53171l0,0z" id="svg_4"/>
   </g>
  </g>
 </g>
</svg>