<svg xmlns="http://www.w3.org/2000/svg" viewBox="0 0 600 600"><defs><linearGradient id="a" x1="0" x2="1" y1="0" y2="1"><stop offset="0%" stop-color="#A1A1F1"/><stop offset="54.3%" stop-color="#E69BDD"/></linearGradient></defs><rect width="600" height="600" fill="url(#a)" rx="100"/><path fill="#fff" d="M255 128a2 2 0 0 1-2-1l-2-6a1 1 0 0 0-1-1l-6-2a2 2 0 0 1 0-3l6-3a1 1 0 0 0 1 0l2-7a2 2 0 0 1 3 0l3 7 7 3a2 2 0 0 1 1 1 2 2 0 0 1-1 2l-7 2a1 1 0 0 0 0 1l-3 6a2 2 0 0 1-1 1zm4-16zM148 87a2 2 0 0 1-2-1l-4-9a1 1 0 0 0-1 0l-9-4a2 2 0 0 1 0-3l9-4a1 1 0 0 0 1 0l4-9a2 2 0 0 1 4 0l4 9a1 1 0 0 0 1 0l9 4a2 2 0 0 1 2 2 2 2 0 0 1-2 1l-9 4a1 1 0 0 0-1 0l-4 9a2 2 0 0 1-2 1zm6-21zm-39 88a4 4 0 0 1-4-2l-6-15a2 2 0 0 0-1-1l-15-6a4 4 0 0 1 0-7l15-6a2 2 0 0 0 1-1l6-15a4 4 0 0 1 7 0l6 15a2 2 0 0 0 1 1l15 6a4 4 0 0 1 2 4 4 4 0 0 1-2 3l-15 6a2 2 0 0 0-1 1l-6 15a4 4 0 0 1-3 2zm9-37zM74 230a2 2 0 0 1-1-1l-3-6a1 1 0 0 0-1-1l-6-3a2 2 0 0 1 0-2l6-3a1 1 0 0 0 1-1l3-6a2 2 0 0 1 2 0l3 6a1 1 0 0 0 1 1l6 3a2 2 0 0 1 1 1 2 2 0 0 1-1 1l-6 3a1 1 0 0 0-1 1l-3 6a2 2 0 0 1-1 1zm4-16zm102-90a3 3 0 0 1-2-1l-4-11a2 2 0 0 0-1-1l-11-4a3 3 0 0 1 0-5l11-4a2 2 0 0 0 1-1l4-11a3 3 0 0 1 5 0l4 11a2 2 0 0 0 1 1l11 4a3 3 0 0 1 2 2 3 3 0 0 1-2 3l-11 4a2 2 0 0 0-1 1l-4 11a3 3 0 0 1-3 1zm7-26zm123 331a2 2 0 0 1-1-1l-3-6a1 1 0 0 0 0-1l-7-3a2 2 0 0 1 0-2l7-3a1 1 0 0 0 0-1l3-6a2 2 0 0 1 3 0l2 6a1 1 0 0 0 1 1l6 3a2 2 0 0 1 1 1 2 2 0 0 1-1 1l-6 3a1 1 0 0 0-1 1l-2 6a2 2 0 0 1-2 1zm5-16zm101-208a1 1 0 0 1-1-1l-2-6a1 1 0 0 0-1 0l-5-3a1 1 0 0 1 0-2l5-2a1 1 0 0 0 1-1l2-6a1 1 0 0 1 3 0l2 6a1 1 0 0 0 0 1l6 2a1 1 0 0 1 1 1 1 1 0 0 1-1 1l-6 3-2 6a1 1 0 0 1-2 1zm4-14zm-138 34a4 4 0 0 1-4-3l-7-19a3 3 0 0 0-2-2l-19-7a4 4 0 0 1 0-8l19-7a3 3 0 0 0 2-2l7-19a4 4 0 0 1 8 0l7 19a3 3 0 0 0 2 2l18 7a5 5 0 0 1 3 4 4 4 0 0 1-2 4l-19 7a3 3 0 0 0-2 2l-7 19a4 4 0 0 1-4 3zm12-46zm71 122a7 7 0 0 1-7-4l-11-29a4 4 0 0 0-2-3l-29-11a7 7 0 0 1 0-13l29-11a4 4 0 0 0 2-3l11-29a7 7 0 0 1 13 0l12 29a4 4 0 0 0 2 3l29 11a7 7 0 0 1 4 7 7 7 0 0 1-4 6l-29 11a4 4 0 0 0-2 3l-12 29a7 7 0 0 1-6 4zm19-71zM254 445a10 10 0 0 1-10-7l-17-44a7 7 0 0 0-4-4l-43-17a11 11 0 0 1 0-19l43-17a7 7 0 0 0 4-4l17-44a11 11 0 0 1 20 0l17 44a7 7 0 0 0 3 4l44 17a11 11 0 0 1 7 10 10 10 0 0 1-7 9l-44 17a7 7 0 0 0-3 4l-17 44a10 10 0 0 1-10 7zm28-108z"/></svg>