<?xml version="1.0" standalone="no"?>
<!DOCTYPE svg PUBLIC "-//W3C//DTD SVG 20010904//EN"
 "http://www.w3.org/TR/2001/REC-SVG-20010904/DTD/svg10.dtd">
<svg version="1.0" xmlns="http://www.w3.org/2000/svg"
 width="700.000000pt" height="700.000000pt" viewBox="0 0 700.000000 700.000000"
 preserveAspectRatio="xMidYMid meet">
<metadata>
Created by potrace 1.14, written by Peter Selinger 2001-2017
</metadata>
<g transform="translate(0.000000,700.000000) scale(0.100000,-0.100000)"
fill="#000000" stroke="none">
<path d="M1050 6995 c-8 -2 -49 -9 -90 -15 -402 -65 -764 -374 -895 -764 -64
-191 -59 35 -63 -2651 -2 -1632 0 -2470 7 -2530 31 -272 147 -506 345 -700
191 -186 415 -294 678 -326 54 -6 933 -9 2528 -7 l2445 3 101 27 c436 116 746
426 862 862 l27 101 3 2440 c2 1631 0 2470 -7 2530 -61 533 -479 956 -1011
1025 -66 8 -4887 13 -4930 5z m718 -704 c26 -58 29 -60 92 -83 89 -31 89 -53
1 -83 -63 -21 -65 -23 -89 -77 -37 -86 -54 -85 -94 2 -23 52 -28 56 -82 74
-57 20 -82 38 -72 54 3 5 33 17 67 27 60 19 63 21 87 75 41 89 54 91 90 11z
m359 -283 c4 -7 19 -41 33 -76 25 -64 25 -64 92 -91 37 -15 73 -32 80 -39 21
-21 -3 -43 -77 -71 l-69 -27 -26 -66 c-43 -116 -65 -116 -109 -3 l-26 70 -68
26 c-115 44 -115 64 -2 108 l70 26 25 65 c14 36 29 71 33 78 10 15 33 16 44 0z
m-717 -279 l36 -94 91 -35 c166 -64 165 -88 -2 -153 l-89 -34 -36 -90 c-65
-166 -85 -166 -150 0 l-35 92 -95 36 c-153 59 -153 86 0 146 l95 38 38 95 c60
153 87 153 147 -1z m1594 7 c15 -38 24 -47 62 -62 24 -9 44 -23 44 -31 0 -7
-20 -22 -45 -33 -31 -13 -48 -28 -55 -47 -26 -74 -42 -77 -67 -15 -18 43 -27
52 -64 64 -23 8 -45 20 -47 26 -2 7 18 21 47 34 28 11 51 24 51 28 0 21 32 80
44 80 7 0 21 -20 30 -44z m314 -563 c12 -10 40 -67 62 -128 23 -60 47 -115 53
-121 7 -6 58 -28 114 -48 55 -21 111 -44 122 -52 21 -15 27 -49 13 -72 -5 -7
-64 -34 -131 -60 l-123 -47 -50 -128 c-41 -104 -54 -128 -73 -133 -42 -10 -59
10 -104 130 -24 64 -49 121 -57 126 -7 6 -66 32 -131 58 -113 45 -118 49 -121
78 -2 18 3 36 11 43 8 6 68 33 132 59 l118 47 44 115 c38 102 68 150 93 150 4
0 17 -8 28 -17z m1568 -354 c13 -31 25 -44 55 -56 22 -8 39 -20 39 -27 0 -6
-19 -20 -42 -31 -32 -15 -45 -29 -53 -54 -16 -50 -33 -50 -52 -1 -14 34 -25
46 -61 61 -49 21 -48 33 8 55 28 12 41 25 53 55 8 21 20 39 26 39 6 0 18 -18
27 -41z m-581 -101 c17 -16 46 -77 90 -190 35 -92 68 -176 74 -186 6 -12 75
-43 188 -86 98 -38 188 -78 201 -89 26 -24 29 -72 8 -103 -10 -13 -79 -45
-193 -89 -98 -37 -185 -75 -194 -84 -9 -9 -47 -95 -83 -191 -39 -101 -76 -182
-87 -192 -30 -25 -81 -23 -106 5 -11 12 -51 102 -89 200 -43 113 -74 182 -86
188 -10 6 -94 39 -186 74 -186 72 -218 95 -208 149 4 17 12 37 20 44 7 7 93
44 191 82 98 38 185 75 192 83 8 8 43 89 79 182 77 199 79 204 107 215 36 14
54 11 82 -12z m-3410 -171 c14 -36 23 -46 58 -59 58 -21 59 -42 4 -63 -38 -14
-48 -24 -62 -62 -21 -55 -42 -54 -63 3 -13 35 -23 45 -65 62 -42 18 -48 24
-38 36 7 8 28 20 48 27 26 8 39 21 50 48 30 73 42 74 68 8z m2149 -879 c25
-26 54 -91 130 -293 55 -143 108 -270 120 -281 12 -12 137 -66 286 -123 285
-109 313 -126 325 -195 9 -47 -16 -98 -63 -123 -20 -11 -147 -62 -282 -113
-135 -51 -253 -101 -263 -110 -10 -9 -64 -137 -121 -284 -59 -150 -114 -278
-127 -292 -35 -37 -87 -49 -131 -31 -20 9 -44 26 -53 40 -9 14 -56 130 -106
258 -110 288 -119 308 -138 319 -9 4 -135 54 -281 109 -297 114 -320 128 -320
202 0 51 22 95 58 113 15 8 135 55 267 106 132 50 253 99 269 108 25 15 43 54
137 297 122 315 128 325 213 325 41 0 53 -5 80 -32z m610 -1441 c14 -38 24
-47 61 -62 25 -9 45 -23 45 -30 0 -7 -20 -21 -44 -30 -38 -15 -47 -24 -64 -66
-25 -58 -43 -57 -61 3 -11 35 -19 43 -62 61 -27 12 -49 26 -49 32 0 6 21 20
48 31 39 17 49 27 61 60 14 39 29 56 42 49 3 -3 14 -24 23 -48z"/>
</g>
</svg>
